<svg width="512" height="512" viewBox="0 0 512 512" fill="none" xmlns="http://www.w3.org/2000/svg">
  <style>
    path {
      fill: white;
    }
    @media (prefers-color-scheme: light) {
      path {
        fill: black;
      }
    }
  </style>
  <path d="M320.116 96.6498C320.116 131.803 291.619 160.3 256.466 160.3C221.313 160.3 192.816 131.803 192.816 96.6498C192.816 61.497 221.313 33 256.466 33C291.619 33 320.116 61.497 320.116 96.6498Z"/>
  <path d="M426.097 231.334C395.654 248.911 356.726 238.48 339.15 208.037C321.573 177.594 332.004 138.666 362.447 121.09C392.891 103.513 431.818 113.944 449.395 144.387C466.971 174.83 456.54 213.758 426.097 231.334Z"/>
  <path d="M362.447 390.459C332.004 372.883 321.573 333.955 339.15 303.512C356.726 273.068 395.654 262.638 426.097 280.214C456.54 297.791 466.971 336.718 449.395 367.161C431.818 397.605 392.89 408.035 362.447 390.459Z"/>
  <path d="M192.816 414.899C192.817 379.746 221.313 351.249 256.466 351.249C291.619 351.249 320.116 379.746 320.116 414.899C320.116 450.052 291.619 478.549 256.466 478.549C221.313 478.549 192.816 450.052 192.816 414.899Z"/>
  <path d="M86.8355 280.214C117.279 262.638 156.206 273.068 173.783 303.512C191.359 333.955 180.929 372.882 150.485 390.459C120.042 408.035 81.1145 397.605 63.5381 367.161C45.9617 336.718 56.3923 297.791 86.8355 280.214Z"/>
  <path d="M150.485 121.09C180.929 138.666 191.359 177.594 173.783 208.037C156.206 238.48 117.279 248.911 86.8355 231.334C56.3923 213.758 45.9617 174.83 63.5381 144.387C81.1145 113.944 120.042 103.513 150.485 121.09Z"/>
</svg>
