<svg width="146" height="22" viewBox="0 0 146 22" fill="none" xmlns="http://www.w3.org/2000/svg">
<g clip-path="url(#clip0_11_377)">
<path d="M128.199 20.7603L124.61 6.68243H128.199L130.545 15.9297H131.097L133.443 6.68243H137.308L139.654 15.9297H140.206L142.553 6.68243H146.141L142.553 20.7603H137.998L135.652 11.6511H135.1L132.753 20.7603H128.199Z" fill="#F2EBD9"/>
<path d="M114.926 16.7027C115.644 17.4756 116.527 17.862 117.576 17.862C118.625 17.862 119.508 17.4756 120.226 16.7027C120.944 15.9298 121.303 14.936 121.303 13.7215C121.303 12.5069 120.944 11.5132 120.226 10.7403C119.508 9.96736 118.625 9.58091 117.576 9.58091C116.527 9.58091 115.644 9.96736 114.926 10.7403C114.209 11.5132 113.85 12.5069 113.85 13.7215C113.85 14.936 114.209 15.9298 114.926 16.7027ZM112.414 8.47676C113.776 7.09658 115.497 6.40649 117.576 6.40649C119.656 6.40649 121.367 7.09658 122.71 8.47676C124.072 9.83854 124.753 11.5868 124.753 13.7215C124.753 15.8561 124.072 17.6136 122.71 18.9938C121.367 20.3555 119.656 21.0364 117.576 21.0364C115.497 21.0364 113.776 20.3555 112.414 18.9938C111.071 17.6136 110.399 15.8561 110.399 13.7215C110.399 11.5868 111.071 9.83854 112.414 8.47676Z" fill="#F2EBD9"/>
<path d="M102.111 20.7603V6.68243H105.01L105.286 7.92459H105.424C105.589 7.70376 105.792 7.50134 106.031 7.31731C106.601 6.89406 107.227 6.68243 107.908 6.68243H110.668V9.99487H108.184C106.436 9.99487 105.562 10.869 105.562 12.6172V20.7603H102.111Z" fill="#F2EBD9"/>
<path d="M92.5947 20.7603V6.68243H95.4931L95.7691 7.92459H95.9072C96.0728 7.70376 96.2752 7.50134 96.5144 7.31731C97.0849 6.89406 97.7106 6.68243 98.3915 6.68243H101.152V9.99487H98.6675C96.9193 9.99487 96.0452 10.869 96.0452 12.6172V20.7603H92.5947Z" fill="#F2EBD9"/>
<path d="M80.9842 16.7027C81.7018 17.4756 82.5852 17.862 83.6341 17.862C84.683 17.862 85.5664 17.4756 86.2841 16.7027C87.0017 15.9298 87.3606 14.936 87.3606 13.7215C87.3606 12.5069 87.0017 11.5132 86.2841 10.7403C85.5664 9.96736 84.683 9.58091 83.6341 9.58091C82.5852 9.58091 81.7018 9.96736 80.9842 10.7403C80.2665 11.5132 79.9076 12.5069 79.9076 13.7215C79.9076 14.936 80.2665 15.9298 80.9842 16.7027ZM78.4722 8.47676C79.834 7.09658 81.5546 6.40649 83.6341 6.40649C85.7136 6.40649 87.425 7.09658 88.7684 8.47676C90.1302 9.83854 90.8111 11.5868 90.8111 13.7215C90.8111 15.8561 90.1302 17.6136 88.7684 18.9938C87.425 20.3555 85.7136 21.0364 83.6341 21.0364C81.5546 21.0364 79.834 20.3555 78.4722 18.9938C77.1288 17.6136 76.4572 15.8561 76.4572 13.7215C76.4572 11.5868 77.1288 9.83854 78.4722 8.47676Z" fill="#F2EBD9"/>
<path d="M54.5029 20.7604V6.68253H57.6773L57.9534 8.06271H58.0914C58.3122 7.76827 58.5883 7.49223 58.9195 7.2346C59.6556 6.68253 60.4837 6.40649 61.4038 6.40649C62.508 6.40649 63.4925 6.72853 64.3574 7.37262C64.7439 7.70386 65.0475 8.02591 65.2684 8.33875H65.4064C65.6456 8.02591 65.9769 7.70386 66.4001 7.37262C67.3018 6.72853 68.3508 6.40649 69.5469 6.40649C71.0007 6.40649 72.2337 6.95856 73.2458 8.06271C74.2763 9.14845 74.7916 10.4826 74.7916 12.0652V20.7604H71.3412V12.3413C71.3412 11.458 71.1295 10.7771 70.7063 10.2986C70.283 9.82014 69.7125 9.58091 68.9949 9.58091C68.2219 9.58091 67.5871 9.84775 67.0902 10.3814C66.6117 10.8967 66.3725 11.55 66.3725 12.3413V20.7604H62.922V12.3413C62.922 11.458 62.7104 10.7771 62.2872 10.2986C61.8639 9.82014 61.2934 9.58091 60.5757 9.58091C59.8028 9.58091 59.1679 9.84775 58.6711 10.3814C58.1926 10.8967 57.9534 11.55 57.9534 12.3413V20.7604H54.5029Z" fill="#F2EBD9"/>
<path d="M42.8924 16.7027C43.6101 17.4756 44.4934 17.862 45.5423 17.862C46.5912 17.862 47.4746 17.4756 48.1923 16.7027C48.91 15.9298 49.2688 14.936 49.2688 13.7215C49.2688 12.5069 48.91 11.5132 48.1923 10.7403C47.4746 9.96736 46.5912 9.58091 45.5423 9.58091C44.4934 9.58091 43.6101 9.96736 42.8924 10.7403C42.1747 11.5132 41.8158 12.5069 41.8158 13.7215C41.8158 14.936 42.1747 15.9298 42.8924 16.7027ZM40.3804 8.47676C41.7422 7.09658 43.4628 6.40649 45.5423 6.40649C47.6218 6.40649 49.3332 7.09658 50.6766 8.47676C52.0384 9.83854 52.7193 11.5868 52.7193 13.7215C52.7193 15.8561 52.0384 17.6136 50.6766 18.9938C49.3332 20.3555 47.6218 21.0364 45.5423 21.0364C43.4628 21.0364 41.7422 20.3555 40.3804 18.9938C39.037 17.6136 38.3654 15.8561 38.3654 13.7215C38.3654 11.5868 39.037 9.83854 40.3804 8.47676Z" fill="#F2EBD9"/>
<path d="M31.0472 17.4479V9.99492H28.8389V6.68248H31.0472V2.67995H34.4976V6.68248H37.672V9.99492H34.4976V16.7578C34.4976 17.4019 34.8197 17.7239 35.4637 17.7239H37.672V20.7603H34.6356C33.4763 20.7603 32.5838 20.4751 31.9581 19.9046C31.3508 19.3158 31.0472 18.4968 31.0472 17.4479Z" fill="#F2EBD9"/>
<path d="M13.497 4.04115C13.497 5.67422 12.1732 6.99808 10.5401 6.99808C8.90702 6.99808 7.58316 5.67422 7.58316 4.04115C7.58316 2.40808 8.90702 1.08422 10.5401 1.08422C12.1732 1.08422 13.497 2.40808 13.497 4.04115Z" fill="#F2EBD9"/>
<path d="M18.4205 10.2981C17.0062 11.1146 15.1978 10.6301 14.3813 9.21578C13.5647 7.8015 14.0493 5.99307 15.4636 5.17653C16.8779 4.36 18.6863 4.84457 19.5028 6.25885C20.3193 7.67312 19.8348 9.48156 18.4205 10.2981Z" fill="#F2EBD9"/>
<path d="M15.4636 17.6904C14.0493 16.8739 13.5647 15.0655 14.3813 13.6512C15.1978 12.2369 17.0062 11.7523 18.4205 12.5689C19.8348 13.3854 20.3193 15.1938 19.5028 16.6081C18.6863 18.0224 16.8778 18.507 15.4636 17.6904Z" fill="#F2EBD9"/>
<path d="M7.58316 18.8258C7.58316 17.1927 8.90703 15.8689 10.5401 15.8689C12.1732 15.8689 13.497 17.1927 13.497 18.8258C13.497 20.4589 12.1732 21.7827 10.5401 21.7827C8.90703 21.7827 7.58316 20.4589 7.58316 18.8258Z" fill="#F2EBD9"/>
<path d="M2.65968 12.5689C4.07396 11.7523 5.88239 12.2369 6.69893 13.6512C7.51546 15.0655 7.03089 16.8739 5.61661 17.6904C4.20234 18.5069 2.39391 18.0224 1.57737 16.6081C0.760839 15.1938 1.24541 13.3854 2.65968 12.5689Z" fill="#F2EBD9"/>
<path d="M5.61661 5.17653C7.03089 5.99307 7.51546 7.8015 6.69893 9.21578C5.88239 10.6301 4.07396 11.1146 2.65968 10.2981C1.24541 9.48156 0.760839 7.67313 1.57737 6.25885C2.39391 4.84457 4.20234 4.36 5.61661 5.17653Z" fill="#F2EBD9"/>
</g>
<defs>
<clipPath id="clip0_11_377">
<rect width="146" height="22" fill="white"/>
</clipPath>
</defs>
</svg>
