<svg width="77" height="27" viewBox="0 0 77 27" fill="none" xmlns="http://www.w3.org/2000/svg">
<g opacity="0.32" clip-path="url(#clip0_11_286)">
<path d="M23.2587 11.1546C23.081 12.0677 22.6366 12.8138 21.9257 13.3928C21.2148 13.9718 20.3595 14.2613 19.3598 14.2613C18.8711 14.2613 18.3935 14.1834 17.9269 14.0275C17.4604 13.8939 16.9828 13.6823 16.494 13.3928C16.0053 13.1033 15.5165 12.7915 15.0278 12.4574C14.5613 12.1234 14.1058 11.7893 13.6615 11.4553C13.2172 11.0989 12.8173 10.776 12.4619 10.4865C12.3952 10.4197 12.3286 10.3863 12.2619 10.3863C12.1953 10.3863 12.1286 10.4197 12.062 10.4865C12.0176 10.531 11.9953 10.5867 11.9953 10.6535C11.9953 10.6758 12.0065 10.7203 12.0287 10.7871C12.0731 10.8317 12.1286 10.8762 12.1953 10.9208C12.6174 11.2548 13.1061 11.6334 13.6615 12.0566C14.2391 12.4797 14.8278 12.9474 15.4277 13.4596C16.0275 13.9496 16.6162 14.4729 17.1938 15.0297C17.7714 15.5864 18.2824 16.1655 18.7267 16.7668C19.171 17.3458 19.5042 17.9248 19.7264 18.5039C19.9708 19.0606 20.0929 19.5951 20.0929 20.1073C20.0929 20.1964 20.0929 20.2855 20.0929 20.3746C20.0263 21.3322 19.7708 22.1451 19.3265 22.8132C18.9044 23.4813 18.3601 24.027 17.6937 24.4501C17.0272 24.8732 16.2719 25.185 15.4277 25.3855C14.5835 25.5636 13.706 25.6527 12.7951 25.6527C11.7954 25.6527 10.8068 25.5525 9.82932 25.3521C8.87405 25.1516 7.98542 24.8732 7.16345 24.5169C6.31925 24.1383 5.44173 23.6484 4.53089 23.0471C3.62005 22.4458 2.79807 21.7776 2.06496 21.0427C1.35406 20.2855 0.831988 19.5617 0.498753 18.8713C0.165519 18.1587 -0.00109863 17.5017 -0.00109863 16.9004C-0.00109863 16.6554 0.021117 16.3993 0.0655483 16.1321C0.132195 15.8425 0.232166 15.5419 0.365459 15.2301C0.520969 14.896 0.709802 14.5954 0.931958 14.3282C1.17633 14.0386 1.44292 13.7825 1.73172 13.5598C2.04274 13.3371 2.38708 13.1701 2.76475 13.0587C2.96469 13.0142 3.16463 12.9808 3.36457 12.9585C3.56451 12.9362 3.75334 12.9251 3.93107 12.9251C4.86413 12.9251 5.68611 13.1367 6.39701 13.5598C7.13012 13.9607 7.79659 14.4395 8.39641 14.9963C9.01845 15.5308 9.60717 16.0764 10.1626 16.6331C10.7402 17.1899 11.34 17.6131 11.962 17.9026C12.0065 17.9248 12.062 17.9471 12.1286 17.9694C12.1953 17.9916 12.2397 18.0028 12.2619 18.0028C12.3286 18.0028 12.373 17.9805 12.3952 17.936C12.4174 17.8914 12.4286 17.8469 12.4286 17.8024C12.4286 17.7578 12.3841 17.7021 12.2953 17.6353C12.0731 17.5017 11.6732 17.2233 11.0956 16.8002C10.518 16.3548 9.91819 15.7869 9.29615 15.0965C8.67411 14.4061 8.10761 13.5932 7.59665 12.6579C7.10791 11.7002 6.83021 10.6424 6.76356 9.48431C6.76356 9.39523 6.76356 9.31728 6.76356 9.25047C6.76356 8.71598 6.83021 8.17035 6.96351 7.61359C7.0968 7.05683 7.30785 6.5112 7.59665 5.97671C7.88545 5.44221 8.2409 4.95226 8.663 4.50685C9.0851 4.03917 9.55163 3.66057 10.0626 3.37106C10.9734 2.83656 11.9509 2.56932 12.9951 2.56932C14.6834 2.56932 16.5718 3.20403 18.66 4.47345C19.171 4.8075 19.7264 5.23064 20.3262 5.74287C20.926 6.23282 21.4592 6.77844 21.9257 7.37975C22.4145 7.98105 22.7699 8.54895 22.9921 9.08344C23.2142 9.61794 23.3253 10.0968 23.3253 10.5199C23.3253 10.7426 23.3031 10.9542 23.2587 11.1546Z" fill="white"/>
<path d="M38.5544 17.034C37.888 18.1698 36.9548 19.2611 35.7554 20.3078C34.5779 21.3545 33.2561 22.2787 31.7899 23.0805C30.3458 23.8822 28.8463 24.528 27.2912 25.018C25.7361 25.4857 24.2699 25.7195 22.8925 25.7195C21.9594 25.7195 21.093 25.597 20.2933 25.3521C19.5157 25.1071 18.8381 24.7173 18.2605 24.1829C17.7051 23.6261 17.2941 22.9691 17.0276 22.2119C16.7832 21.4324 16.661 20.6084 16.661 19.7399C16.661 19.4726 16.6721 19.1943 16.6943 18.9047C16.7832 17.6353 17.072 16.3548 17.5607 15.0631C18.0717 13.7714 18.7271 12.5242 19.5268 11.3216C20.3488 10.0968 21.293 8.96096 22.3593 7.91424C23.4257 6.84526 24.5698 5.92103 25.7916 5.14156C27.0135 4.33982 28.2798 3.71625 29.5905 3.27084C30.9012 2.80316 32.2119 2.56932 33.5227 2.56932C33.9448 2.56932 34.3558 2.60272 34.7556 2.66953C35.1555 2.73635 35.511 2.85883 35.822 3.037C36.1552 3.19289 36.4329 3.4156 36.6551 3.70511C36.8772 3.99463 37.0218 4.35096 37.0884 4.7741C37.1104 4.86318 37.1215 4.9634 37.1215 5.07475C37.1215 5.31973 37.0438 5.62038 36.8883 5.97671C36.7551 6.33303 36.533 6.71163 36.2218 7.1125C35.9331 7.51337 35.5998 7.89197 35.2222 8.2483C34.8445 8.60463 34.4668 8.89414 34.0892 9.11685C32.9117 9.82951 31.7676 10.5088 30.6569 11.1546C29.5683 11.7782 28.4575 12.4797 27.3245 13.2592C26.6803 13.7046 26.1915 14.0609 25.8583 14.3282C25.525 14.5954 25.2918 14.807 25.1585 14.9629C25.0252 15.0965 24.9585 15.2078 24.9585 15.2969C24.9585 15.2969 24.9585 15.3192 24.9585 15.3637C24.9808 15.386 25.0141 15.4194 25.0585 15.4639C25.1252 15.5308 25.2029 15.5642 25.2918 15.5642C25.3362 15.5642 25.4029 15.5419 25.4917 15.4974C25.5806 15.4528 25.6694 15.3971 25.7583 15.3303C27.1579 14.1723 28.6463 13.2369 30.2236 12.5242C31.8232 11.8116 33.5116 11.4553 35.2888 11.4553C35.5776 11.4553 35.8665 11.4664 36.1552 11.4887C36.444 11.5109 36.7327 11.5443 37.0218 11.5889C37.7548 11.7002 38.2992 11.9563 38.6545 12.3572C39.0098 12.7358 39.2099 13.1144 39.2544 13.493C39.321 13.8493 39.3544 14.1277 39.3544 14.3282C39.3544 14.6622 39.2875 15.0742 39.1543 15.5642C39.0433 16.0318 38.8432 16.5218 38.5544 17.034Z" fill="white"/>
<path d="M38.4254 4.3655C38.8031 3.49695 39.4141 2.87338 40.2582 2.49478C41.1248 2.11618 42.102 1.92688 43.1907 1.92688C44.1014 1.92688 45.0346 2.04937 45.9898 2.29434C46.9674 2.53932 47.9005 2.87338 48.7891 3.29652C49.6998 3.71966 50.5219 4.23188 51.2549 4.83318C52.0104 5.43449 52.6103 6.1026 53.0546 6.83753C53.4989 7.55019 53.7432 8.14036 53.7877 8.60804C53.8322 9.07572 53.8542 9.36523 53.8542 9.47659C53.8542 10.1892 53.6656 10.913 53.2878 11.648C52.9101 12.5611 52.4547 13.1958 51.9214 13.5521C51.4105 13.8861 50.8662 14.0532 50.2887 14.0532C49.8889 14.0532 49.4887 13.9975 49.0889 13.8861C48.6891 13.7525 48.3003 13.5966 47.9226 13.4185C47.5449 13.218 47.1785 13.0065 46.8228 12.7838C46.4896 12.5611 46.1788 12.3495 45.8901 12.149C45.8456 12.1268 45.8011 12.1045 45.7566 12.0822C45.7121 12.06 45.679 12.0488 45.6565 12.0488C45.59 12.0488 45.5234 12.0934 45.4568 12.1825C45.3902 12.2493 45.3568 12.3161 45.3568 12.3829C45.3568 12.4052 45.3788 12.4497 45.4233 12.5165C45.4899 12.5833 45.5455 12.639 45.59 12.6835C46.323 13.2626 47.0564 13.8639 47.7894 14.4875C48.5446 15.111 49.2445 15.7903 49.8889 16.5252C50.5329 17.2379 51.0883 18.0173 51.5551 18.8636C52.0215 19.6876 52.3212 20.6007 52.4547 21.6029C52.4547 21.7142 52.4547 21.8256 52.4547 21.9369C52.4547 22.271 52.3882 22.6162 52.2546 22.9725C52.1436 23.3288 51.9438 23.6518 51.6548 23.9413C51.3884 24.2085 51.0663 24.4201 50.6885 24.576C50.3108 24.7319 49.911 24.8098 49.4887 24.8098C48.9113 24.8098 48.3338 24.6428 47.756 24.3087C47.223 23.997 46.7232 23.4625 46.2564 22.7053C45.79 21.9481 45.3568 21.1129 44.957 20.1998C44.5792 19.2645 44.2349 18.3514 43.9238 17.4606C43.635 16.5475 43.4019 15.8125 43.2242 15.2558C43.1797 15.1667 43.1352 15.0888 43.0907 15.0219C43.0462 14.9551 42.9796 14.9217 42.891 14.9217C42.8685 14.9217 42.8465 14.9217 42.824 14.9217C42.6688 14.9663 42.5908 15.0553 42.5908 15.189C42.5908 15.3003 42.6133 15.4562 42.6574 15.6567C42.7909 16.1911 42.913 16.8147 43.0241 17.5274C43.1573 18.2178 43.2352 18.8525 43.2573 19.4315C43.3018 20.0105 43.3239 20.5005 43.3239 20.9014C43.3239 21.2131 43.3129 21.6252 43.2908 22.1374C43.2683 22.6496 43.1687 23.1952 42.9907 23.7743C42.813 24.331 42.5577 24.7876 42.2245 25.1439C41.8913 25.4779 41.447 25.645 40.8916 25.645C40.5804 25.645 40.2251 25.5782 39.8249 25.4445C39.4475 25.3332 39.0253 25.1328 38.5589 24.8432C38.0922 24.576 37.7144 24.1194 37.4257 23.4736C37.137 22.8055 36.9148 22.026 36.7592 21.1352C36.6261 20.2444 36.5481 19.4649 36.526 18.7968C36.526 18.1287 36.526 17.661 36.526 17.3938C36.526 16.5697 36.5481 15.6789 36.5926 14.7213C36.6592 13.7414 36.7592 12.7058 36.8927 11.6146C37.048 10.501 37.2036 9.47659 37.3591 8.54122C37.5368 7.58359 37.7144 6.74845 37.8925 6.03579C38.0922 5.30086 38.2698 4.7441 38.4254 4.3655ZM47.8226 9.27615C47.9336 9.23161 47.9892 9.18707 47.9892 9.14253C48.0116 9.07572 48.0226 9.03117 48.0226 9.0089C48.0226 8.91982 48.0006 8.85301 47.9561 8.80847C47.5783 8.07354 47.0674 7.4611 46.423 6.97115C45.779 6.45893 45.1681 6.14714 44.5902 6.03579C44.0349 5.92444 43.5795 5.86876 43.2242 5.86876C43.1797 5.86876 43.1242 5.86876 43.0576 5.86876C42.9907 5.86876 42.9241 5.90217 42.8575 5.96898C42.7909 6.01352 42.7575 6.08033 42.7575 6.16941C42.7575 6.2585 42.7909 6.33644 42.8575 6.40325C42.9241 6.4478 42.9907 6.47007 43.0576 6.47007C43.1017 6.47007 43.1573 6.47007 43.2242 6.47007C43.5129 6.47007 43.9017 6.52574 44.3905 6.6371C44.9014 6.72618 45.4458 6.99342 46.0232 7.43883C46.6007 7.86197 47.034 8.38533 47.3227 9.0089C47.3451 9.05345 47.3896 9.12026 47.4562 9.20934C47.5449 9.27615 47.6228 9.30956 47.6894 9.30956C47.7339 9.30956 47.7784 9.29842 47.8226 9.27615Z" fill="white"/>
<path d="M60.0149 17.9051C59.6592 17.1924 59.3484 16.4686 59.0818 15.7337C58.8151 14.9765 58.5264 14.2416 58.2152 13.5289C58.1486 13.3953 58.0596 13.3285 57.9485 13.3285C57.9265 13.3285 57.9044 13.3285 57.882 13.3285C57.7709 13.373 57.7043 13.4176 57.6822 13.4621C57.6822 13.5066 57.6822 13.54 57.6822 13.5623C57.6822 13.6069 57.6933 13.6514 57.7153 13.6959C57.8264 14.03 57.982 14.4754 58.1821 15.0322C58.4042 15.5889 58.6264 16.2014 58.8486 16.8695C59.0707 17.5376 59.2815 18.228 59.4816 18.9406C59.6817 19.6533 59.8369 20.3326 59.9479 20.9784C60.059 21.602 60.1146 22.1699 60.1146 22.6821C60.1146 22.7266 60.1035 22.9048 60.0815 23.2166C60.0815 23.5061 59.9704 23.8179 59.7482 24.1519C59.4371 24.5974 58.9707 24.9314 58.3487 25.1541C57.7488 25.3991 57.0934 25.5216 56.3824 25.5216C55.916 25.5216 55.4493 25.4659 54.9829 25.3546C54.5165 25.2655 54.0608 25.1096 53.6165 24.8869C52.7279 24.4192 51.9948 23.5618 51.4174 22.3146C50.8395 21.0675 50.4508 19.7869 50.251 18.473C50.0734 17.159 49.9844 15.9453 49.9844 14.8317C49.9844 14.2527 50.0178 13.3842 50.0844 12.2261C50.1731 11.0457 50.4732 9.74292 50.9841 8.31761C51.5174 6.87003 52.2504 5.67855 53.1836 4.74319C54.1163 3.80783 55.2716 3.34015 56.6491 3.34015C57.3155 3.34015 58.0486 3.47377 58.8486 3.74102C59.9593 4.14189 60.8921 4.79887 61.6476 5.71196C62.4251 6.60278 63.0695 7.60495 63.5804 8.71848C64.1134 9.80973 64.5577 10.9455 64.9134 12.1259C65.2687 13.3062 65.5909 14.3863 65.8796 15.3662C65.902 15.433 65.9351 15.4999 65.9796 15.5667C66.0241 15.6335 66.0686 15.6669 66.1128 15.6669C66.1352 15.6669 66.1573 15.6669 66.1797 15.6669C66.2684 15.6446 66.3129 15.6001 66.3129 15.5333C66.3129 15.4442 66.3018 15.344 66.2794 15.2326C66.1242 14.5645 65.8906 13.7182 65.5798 12.6938C65.2911 11.6693 65.0244 10.5781 64.7798 9.42C64.5356 8.26194 64.369 7.3043 64.28 6.5471C64.2134 5.78991 64.1803 5.25542 64.1803 4.94363C64.1803 4.18643 64.2914 3.42923 64.5135 2.67203C64.7357 1.89257 65.1686 1.25786 65.813 0.767906C66.4795 0.255684 67.3571 -0.000427246 68.4454 -0.000427246C68.6234 -0.000427246 68.8121 0.0107079 69.0122 0.0329781C69.6563 0.0775199 70.2451 0.28909 70.7781 0.667688C71.3335 1.04629 71.8333 1.5251 72.2776 2.10414C72.7444 2.6609 73.1552 3.28447 73.5109 3.97486C73.8662 4.66525 74.1773 5.35563 74.4436 6.04602C74.7327 6.71413 74.9659 7.34884 75.1436 7.95015C75.3212 8.52918 75.4658 8.99686 75.5769 9.35319C75.7766 10.0881 75.9987 11.0123 76.2433 12.1259C76.4876 13.2171 76.6097 14.0857 76.6097 14.7315C76.6321 15.3551 76.6431 15.7114 76.6431 15.8005C76.6431 16.914 76.4876 18.061 76.1768 19.2413C75.8656 20.3994 75.2436 21.4683 74.3105 22.4483C73.5109 23.2945 72.5667 23.9515 71.478 24.4192C70.3893 24.8646 69.2899 25.0873 68.1791 25.0873C67.1125 25.0873 66.1573 24.8757 65.3132 24.4526C64.4911 24.0295 63.7581 23.4727 63.1137 22.7823C62.4696 22.0919 61.8918 21.3236 61.3809 20.4773C60.8921 19.631 60.4368 18.7736 60.0149 17.9051Z" fill="white"/>
</g>
<defs>
<clipPath id="clip0_11_286">
<rect width="76.9953" height="26.0216" fill="white"/>
</clipPath>
</defs>
</svg>
