<svg width="1294" height="195" viewBox="0 0 1294 195" fill="none" xmlns="http://www.w3.org/2000/svg">
<g clip-path="url(#clip0_23_576)">
<path d="M1136.23 183.999L1104.42 59.2264H1136.23L1157.02 141.185H1161.91L1182.71 59.2264H1216.96L1237.76 141.185H1242.65L1263.45 59.2264H1295.25L1263.45 183.999H1223.08L1202.28 103.264H1197.39L1176.59 183.999H1136.23Z" fill="white"/>
<path d="M1018.59 148.036C1024.95 154.886 1032.78 158.311 1042.08 158.311C1051.38 158.311 1059.2 154.886 1065.57 148.036C1071.93 141.186 1075.11 132.378 1075.11 121.613C1075.11 110.849 1071.93 102.041 1065.57 95.1911C1059.2 88.3409 1051.38 84.9158 1042.08 84.9158C1032.78 84.9158 1024.95 88.3409 1018.59 95.1911C1012.23 102.041 1009.05 110.849 1009.05 121.613C1009.05 132.378 1012.23 141.186 1018.59 148.036ZM996.329 75.1297C1008.4 62.8971 1023.65 56.7808 1042.08 56.7808C1060.51 56.7808 1075.68 62.8971 1087.58 75.1297C1099.65 87.1992 1105.69 102.694 1105.69 121.613C1105.69 140.533 1099.65 156.109 1087.58 168.342C1075.68 180.411 1060.51 186.446 1042.08 186.446C1023.65 186.446 1008.4 180.411 996.329 168.342C984.423 156.109 978.47 140.533 978.47 121.613C978.47 102.694 984.423 87.1992 996.329 75.1297Z" fill="white"/>
<path d="M905.013 183.999V59.2264H930.702L933.148 70.2358H934.371C935.839 68.2786 937.633 66.4844 939.754 64.8534C944.81 61.1021 950.355 59.2264 956.39 59.2264H980.855V88.5846H958.837C943.342 88.5846 935.595 96.3319 935.595 111.827V183.999H905.013Z" fill="white"/>
<path d="M820.668 183.999V59.2264H846.356L848.803 70.2358H850.026C851.494 68.2786 853.288 66.4844 855.408 64.8534C860.465 61.1021 866.01 59.2264 872.045 59.2264H896.51V88.5846H874.491C858.997 88.5846 851.249 96.3319 851.249 111.827V183.999H820.668Z" fill="white"/>
<path d="M717.763 148.036C724.124 154.886 731.953 158.311 741.25 158.311C750.547 158.311 758.375 154.886 764.736 148.036C771.097 141.186 774.278 132.378 774.278 121.613C774.278 110.849 771.097 102.041 764.736 95.1911C758.375 88.3409 750.547 84.9158 741.25 84.9158C731.953 84.9158 724.124 88.3409 717.763 95.1911C711.402 102.041 708.222 110.849 708.222 121.613C708.222 132.378 711.402 141.186 717.763 148.036ZM695.5 75.1297C707.569 62.8971 722.819 56.7808 741.25 56.7808C759.68 56.7808 774.849 62.8971 786.755 75.1297C798.824 87.1992 804.859 102.694 804.859 121.613C804.859 140.533 798.824 156.109 786.755 168.342C774.849 180.411 759.68 186.446 741.25 186.446C722.819 186.446 707.569 180.411 695.5 168.342C683.594 156.109 677.64 140.533 677.64 121.613C677.64 102.694 683.594 87.1992 695.5 75.1297Z" fill="white"/>
<path d="M483.06 184V59.2273H511.195L513.642 71.4599H514.865C516.822 68.8503 519.268 66.4038 522.204 64.1204C528.728 59.2273 536.068 56.7808 544.223 56.7808C554.009 56.7808 562.735 59.6351 570.401 65.3436C573.826 68.2795 576.517 71.1337 578.474 73.9064H579.697C581.818 71.1337 584.754 68.2795 588.505 65.3436C596.497 59.6351 605.794 56.7808 616.395 56.7808C629.28 56.7808 640.208 61.6739 649.178 71.4599C658.312 81.0829 662.879 92.9077 662.879 106.934V184H632.298V109.381C632.298 101.552 630.422 95.5173 626.671 91.2767C622.919 87.0361 617.863 84.9158 611.502 84.9158C604.652 84.9158 599.025 87.2807 594.621 92.0107C590.381 96.5775 588.26 102.368 588.26 109.381V184H557.679V109.381C557.679 101.552 555.803 95.5173 552.052 91.2767C548.3 87.0361 543.244 84.9158 536.883 84.9158C530.033 84.9158 524.406 87.2807 520.002 92.0107C515.762 96.5775 513.642 102.368 513.642 109.381V184H483.06Z" fill="white"/>
<path d="M380.155 148.036C386.516 154.886 394.345 158.311 403.642 158.311C412.939 158.311 420.767 154.886 427.128 148.036C433.489 141.186 436.67 132.378 436.67 121.613C436.67 110.849 433.489 102.041 427.128 95.1911C420.767 88.3409 412.939 84.9158 403.642 84.9158C394.345 84.9158 386.516 88.3409 380.155 95.1911C373.794 102.041 370.614 110.849 370.614 121.613C370.614 132.378 373.794 141.186 380.155 148.036ZM357.892 75.1297C369.962 62.8971 385.211 56.7808 403.642 56.7808C422.072 56.7808 437.241 62.8971 449.147 75.1297C461.217 87.1992 467.251 102.694 467.251 121.613C467.251 140.533 461.217 156.109 449.147 168.342C437.241 180.411 422.072 186.446 403.642 186.446C385.211 186.446 369.962 180.411 357.892 168.342C345.986 156.109 340.032 140.533 340.032 121.613C340.032 102.694 345.986 87.1992 357.892 75.1297Z" fill="white"/>
<path d="M275.171 154.641V88.5851H255.599V59.2269H275.171V23.7524H305.753V59.2269H333.888V88.5851H305.753V148.525C305.753 154.233 308.607 157.088 314.315 157.088H333.888V183.999H306.976C296.701 183.999 288.79 181.471 283.245 176.415C277.862 171.196 275.171 163.938 275.171 154.641Z" fill="white"/>
<path d="M119.624 35.8168C119.624 50.2907 107.891 62.0241 93.4168 62.0241C78.9429 62.0241 67.2095 50.2907 67.2095 35.8168C67.2095 21.3429 78.9429 9.60944 93.4168 9.60944C107.891 9.60944 119.624 21.3429 119.624 35.8168Z" fill="white"/>
<path d="M163.261 91.2721C150.726 98.5091 134.698 94.2143 127.461 81.6796C120.224 69.1448 124.519 53.1166 137.054 45.8797C149.588 38.6427 165.617 42.9375 172.854 55.4722C180.09 68.007 175.796 84.0352 163.261 91.2721Z" fill="white"/>
<path d="M137.054 156.79C124.519 149.553 120.224 133.525 127.461 120.991C134.698 108.456 150.726 104.161 163.261 111.398C175.796 118.635 180.09 134.663 172.854 147.198C165.617 159.733 149.588 164.027 137.054 156.79Z" fill="white"/>
<path d="M67.2095 166.853C67.2095 152.379 78.9429 140.646 93.4168 140.646C107.891 140.646 119.624 152.379 119.624 166.853C119.624 181.327 107.891 193.061 93.4168 193.061C78.9429 193.061 67.2095 181.327 67.2095 166.853Z" fill="white"/>
<path d="M23.5726 111.398C36.1074 104.161 52.1355 108.456 59.3725 120.991C66.6094 133.525 62.3147 149.553 49.7799 156.79C37.2452 164.027 21.217 159.733 13.9801 147.198C6.74314 134.663 11.0379 118.635 23.5726 111.398Z" fill="white"/>
<path d="M49.7799 45.8797C62.3147 53.1166 66.6094 69.1448 59.3725 81.6796C52.1355 94.2143 36.1074 98.5091 23.5726 91.2721C11.0379 84.0352 6.74314 68.007 13.9801 55.4722C21.217 42.9375 37.2452 38.6427 49.7799 45.8797Z" fill="white"/>
</g>
<defs>
<clipPath id="clip0_23_576">
<rect width="1294" height="194.986" fill="white"/>
</clipPath>
</defs>
</svg>
