<svg width="59" height="32" viewBox="0 0 59 32" fill="none" xmlns="http://www.w3.org/2000/svg">
<g clip-path="url(#clip0_11_301)">
<path d="M36.2924 12.3306L36.4812 13.1802C37.1583 13.0387 37.9131 12.8343 38.7035 12.598C38.9752 13.548 39.2966 14.4831 39.6664 15.3995L38.3916 15.8558L38.6746 16.6432C40.0287 16.155 41.9961 15.4943 43.4894 15.1165L43.3005 14.3017C42.4353 14.5061 41.4435 14.8202 40.4857 15.1358C40.2183 14.475 39.8405 13.3884 39.5227 12.3343C41.1815 11.7667 42.7998 11.0871 44.3664 10.3002C47.6998 8.5965 46.6961 6.99502 44.5887 6.68021C43.7227 6.53872 42.4635 6.6328 41.4094 6.90243C39.5205 7.39058 38.4501 8.14613 38.1827 9.19872C38.0568 9.73428 38.1983 10.7098 38.4657 11.7647C37.7064 12.0002 36.9672 12.1891 36.2924 12.3306ZM39.0331 9.41872C39.2064 8.74169 39.9775 8.17502 41.6301 7.75058C42.5931 7.48243 43.6924 7.41946 44.4635 7.52835C45.9449 7.75058 46.2887 8.36243 43.9909 9.51132C42.4752 10.2803 40.908 10.9431 39.3005 11.495C39.0605 10.5832 38.9346 9.77798 39.0287 9.41872H39.0331Z" fill="white" fill-opacity="0.32"/>
<path d="M44.9152 17.7286C46.4263 16.3753 48.4878 14.5649 49.7626 13.5264L49.2589 12.8649C48.0159 13.8723 45.9256 15.7138 44.3796 17.0679L44.9152 17.7286Z" fill="white" fill-opacity="0.32"/>
<path d="M21.7784 13.4474C20.6296 14.4104 18.8666 15.7437 17.6866 15.7437C16.191 15.7437 15.5459 11.8089 15.5459 10.3919C15.5459 8.94447 15.9081 7.71632 16.8207 7.51188C17.997 7.26076 18.8762 9.28965 19.4873 11.1845C19.7574 11.0738 20.0346 10.9812 20.317 10.9074C19.6281 8.7541 18.4829 6.20595 16.6318 6.59928C15.1503 6.89558 14.6799 8.72373 14.6799 10.3919C14.6799 11.9659 15.357 16.6882 17.6866 16.6882C19.1814 16.6882 21.1022 15.1926 22.3451 14.1697L21.7784 13.4474Z" fill="white" fill-opacity="0.32"/>
<path d="M24.5643 10.6458C23.9666 12.2354 23.3843 13.9984 22.8332 15.9347L22.1562 16.231L22.471 16.9554C23.6355 16.4517 29.9155 13.8228 29.9155 11.525C29.9155 10.1873 27.8221 9.84134 25.7288 9.80949L26.1229 8.86505C30.3251 7.9206 34.4932 7.77912 35.9747 7.9369C36.9036 8.03097 36.9666 8.29838 36.1636 9.05394C35.314 9.84134 33.2518 11.3836 31.8036 12.391C32.5592 11.1947 33.4562 10.2028 34.6184 8.90949L34.0517 8.34282C32.6666 9.83838 31.6117 11.0347 30.6992 12.671C28.7947 16.1339 31.0451 16.3073 32.0843 16.3073C33.7836 16.3073 35.7984 15.4725 37.1214 14.8258L36.7784 14.0739C35.5192 14.688 33.6303 15.4591 32.088 15.4591C31.1436 15.4591 30.3251 15.4436 31.0177 13.8384C32.1821 13.1613 35.5362 10.7221 36.6992 9.61616C38.0532 8.3569 37.628 7.31986 36.0695 7.14505C34.588 6.98801 30.608 7.12949 26.5006 7.97912C26.9725 6.92505 27.4636 5.94875 27.948 5.05171L27.2555 4.6806C26.6725 5.75097 26.1058 6.91616 25.5555 8.19097C24.0125 8.55245 22.4858 9.00579 21.0851 9.60727L21.3369 10.788C22.2503 10.7117 23.0777 10.6665 24.5643 10.6458ZM29.1288 11.5273C29.1288 12.7554 25.9021 14.4865 23.7777 15.4939C24.2962 13.7162 24.848 12.0939 25.3984 10.6302C27.3029 10.6302 29.1288 10.788 29.1288 11.5273ZM25.1814 9.08801L24.8851 9.81171C23.8932 9.84357 22.9651 9.90653 22.3355 9.95319C23.2421 9.62282 24.2021 9.33986 25.1814 9.08801Z" fill="white" fill-opacity="0.32"/>
<path d="M37.5658 20.0422C37.9436 18.8933 37.4554 17.0837 34.9213 18.7044C32.8473 20.0422 30.9399 22.3718 30.231 23.8985C29.2399 26.0074 30.6406 26.3696 31.6162 25.7874C32.3087 25.3778 33.7413 23.9459 34.7169 22.3244C35.7243 23.6155 37.3295 25.5985 38.1006 26.48L38.7302 25.9133C38.1169 25.2052 36.9361 23.757 35.9761 22.5607C36.7791 21.6007 37.3302 20.7348 37.5658 20.0422ZM35.0162 21.3333L34.2013 21.5059C33.3043 23.1592 31.8243 24.6859 31.1791 25.0615C30.6754 25.3578 30.5339 25.2659 30.9902 24.2429C31.6673 22.8422 33.4458 20.6696 35.3976 19.4281C36.8791 18.4652 37.0028 19.0503 36.751 19.7896C36.5776 20.3252 36.1369 21.0333 35.445 21.8829L35.0162 21.3333Z" fill="white" fill-opacity="0.32"/>
<path d="M55.6017 24.8148C56.5462 22.7844 57.6951 20.1711 58.3721 17.9518L57.5514 17.697C57.2365 18.7341 56.8277 19.8533 56.3706 20.9711C55.0328 21.16 53.0817 21.0496 51.3336 20.7193C51.8062 19.2081 52.2462 17.76 52.4669 16.863L51.6173 16.6741C51.4121 17.5711 50.9714 19.0356 50.484 20.5304C50.1166 20.4515 49.7554 20.3462 49.4032 20.2156L49.1514 20.9711C49.4973 21.0815 49.8595 21.1933 50.2528 21.2859C49.7491 22.86 49.2299 24.3711 48.9151 25.2363C48.4899 23.5526 47.7817 20.0422 47.4195 18.217H46.7269C45.7988 20.4674 44.2084 22.7496 42.4617 24.2133C41.2499 25.2207 40.5573 24.7956 41.0136 23.3948C41.3447 22.4193 42.1788 20.9711 43.7054 19.2081L43.2017 18.7044C41.5647 19.46 38.9202 21.2074 37.424 22.2778L37.9277 22.9074C38.9188 22.1985 40.3825 21.223 41.6106 20.483C40.9491 21.4459 40.4299 22.4193 40.1936 23.143C39.4528 25.3941 41.1854 26.3385 43.0269 24.8118C44.5536 23.5207 45.9543 21.6793 46.8832 19.9163C47.261 21.7896 47.938 25.0637 48.2521 26.0867L49.4958 26.1496C49.718 25.6141 50.4084 23.5837 51.101 21.4748C52.7536 21.7896 54.6269 21.9156 56.0121 21.8052C55.5869 22.8281 55.1306 23.8052 54.7373 24.6859C53.9965 24.5911 53.3365 24.5281 52.7225 24.4807L52.6625 25.3333C54.218 25.443 56.0151 25.6948 58.6121 26.2148L58.7691 25.3963C57.5691 25.1422 56.5306 24.9533 55.6017 24.8148Z" fill="white" fill-opacity="0.32"/>
<path d="M25.5566 22.5454C28.0588 21.3335 31.8677 19.4757 32.2773 19.0513L31.8522 18.1224C30.0262 18.5476 27.4766 18.7676 25.6825 18.5476L27.1144 16.092L26.3588 15.6476C25.2729 17.4735 24.3447 19.1735 23.164 21.2824L23.9196 21.6913L25.2729 19.2831C26.7544 19.5194 28.8285 19.4254 30.6062 19.158C29.0166 20.0076 25.507 21.6913 23.3351 22.7305L23.6655 23.6935C25.9477 23.1113 27.9781 23.0794 27.9781 23.9454C27.9781 24.5431 24.7514 25.755 23.1307 25.755C21.7136 25.755 21.084 25.2046 20.864 24.4491C20.5173 23.3468 20.9581 21.3165 22.1699 18.9557L21.1159 18.4683C19.5603 21.5683 17.5744 23.8505 16.3307 24.8268C15.6855 25.3305 14.9773 25.2831 15.1033 24.4802C15.2603 23.3631 16.2996 21.4587 17.9366 19.6483L17.2299 18.815L12.1929 21.695C11.7294 20.7441 11.0697 19.9022 10.2573 19.2246C10.9499 18.138 11.4847 17.2246 11.721 16.7691L10.9336 16.3913C10.7114 16.8165 10.2099 17.6817 9.5329 18.7046C8.43142 18.012 7.06179 17.5713 5.42475 17.5713C1.93067 17.5713 0.184007 20.2002 3.5366 21.9157L3.94549 21.1602C1.34845 19.8224 3.0329 18.4372 5.42697 18.4372C6.87512 18.4372 8.08697 18.815 9.06327 19.4291C8.14993 20.798 7.04845 22.3246 6.04105 23.5031C4.60919 22.952 3.1766 22.4483 2.38993 22.2757C1.05142 21.9794 -0.380436 22.4483 0.564008 24.2587C0.92623 24.9357 2.16919 26.3994 3.55438 26.3994C4.27808 26.3994 5.25808 25.6439 6.29512 24.5261C7.88475 25.1402 9.3803 25.7698 9.7766 25.9587C12.9877 27.4224 13.4751 26.1313 12.8618 23.5031C12.7677 23.1296 12.6519 22.7618 12.5151 22.4017L16.4973 20.135C15.3485 21.5987 14.4973 23.2513 14.3255 24.3528C14.0892 25.9083 15.6003 26.3994 16.8122 25.455C17.7403 24.7305 19.0344 23.3454 20.2744 21.4883C19.9596 22.6846 19.8655 23.8491 20.1173 24.6676C20.4322 25.7046 21.3136 26.5409 23.1396 26.5409C24.981 26.5409 28.7736 25.3291 28.7736 23.9439C28.767 22.6394 27.2877 22.3705 25.5566 22.5454ZM3.55216 25.5357C2.63956 25.5357 1.61586 24.4024 1.31734 23.8513C0.872897 23.0017 1.23808 22.9076 2.19882 23.1276C2.89142 23.2854 4.13438 23.7098 5.42475 24.198C4.65438 25.0165 3.9966 25.5357 3.55216 25.5357ZM10.1447 25.1735C9.75142 25.0009 8.39734 24.4328 6.90253 23.8357C7.90993 22.6557 8.91734 21.2387 9.76697 19.9483C10.9477 20.9402 11.6714 22.3091 12.0018 23.6942C12.524 25.8817 12.3514 26.1965 10.1447 25.1735Z" fill="white" fill-opacity="0.32"/>
</g>
<defs>
<clipPath id="clip0_11_301">
<rect width="58.963" height="32" fill="white"/>
</clipPath>
</defs>
</svg>
