<svg width="138" height="18" viewBox="0 0 138 18" fill="none" xmlns="http://www.w3.org/2000/svg">
<g clip-path="url(#clip0_11_299)">
<path fill-rule="evenodd" clip-rule="evenodd" d="M80.4085 17.4939H89.1761V12.3449H82.1173V7.19594H89.178V2.04689H82.1173V0H76.9946V14.0606C76.9927 16.0741 78.4052 17.4939 80.4085 17.4939ZM10.529 12.9602C13.0696 12.5329 14.5212 10.5612 14.5212 7.80018V7.56693C14.5212 4.41199 12.1783 2.11134 8.38394 2.11134H6.40061C2.30949 2.11134 0 4.41189 0 8.42071V11.0549C0 15.3281 2.44177 17.4939 6.76402 17.4939H14.9795V12.9602H10.529ZM7.2968 10.5915C5.77864 10.5915 4.72283 9.53972 4.72283 8.09386C4.72283 6.61482 5.77864 5.56307 7.2968 5.56307C8.8473 5.56307 9.9031 6.61472 9.9031 8.09386C9.89818 9.54264 8.84238 10.5915 7.2968 10.5915ZM17.8289 17.4939H29.1601V12.3664H23.8857C23.5442 12.3732 23.2048 12.3119 22.8873 12.1861C22.5698 12.0603 22.2805 11.8724 22.0362 11.6335C21.7924 11.3949 21.5986 11.11 21.4662 10.7955C21.334 10.4812 21.2658 10.1436 21.2658 9.80263C21.2658 9.46163 21.334 9.12407 21.4662 8.8098C21.5986 8.49528 21.7924 8.21037 22.0362 7.9718C22.2804 7.73299 22.5695 7.54522 22.8869 7.41944C23.2046 7.29369 23.5441 7.23232 23.8857 7.23887H29.1562V2.11134H17.8289C17.0379 2.11134 16.5773 2.5709 16.5773 3.36034V16.2479C16.5773 17.0334 17.0408 17.4939 17.8289 17.4939ZM33.7613 2.11134H42.9348C44.8478 2.11134 45.9372 3.19536 45.9372 5.10199V14.5023C45.9372 16.4089 44.8478 17.4939 42.9348 17.4939H33.7613C31.8471 17.4939 30.7579 16.4089 30.7579 14.5023V5.10199C30.7579 3.19536 31.8471 2.11134 33.7613 2.11134ZM35.4108 9.76996C35.4108 11.5448 36.6647 12.7274 38.3808 12.7274C40.0637 12.7274 41.3175 11.5448 41.3195 9.76996C41.3195 8.02529 40.0637 6.84274 38.3808 6.84274C36.6647 6.84274 35.4108 8.0273 35.4108 9.76996ZM47.535 17.4939H52.6853V8.48777C52.6853 7.76479 53.2136 7.20569 53.9075 7.20569C54.6015 7.20569 55.0964 7.76479 55.0964 8.48777V17.4939H60.2468V8.48777C60.2468 7.76479 60.7751 7.20569 61.468 7.20569C62.1609 7.20569 62.6569 7.76479 62.6569 8.48777V17.4939H67.8072V6.18702C67.8072 3.9848 66.2881 2.11134 63.482 2.11134H47.535V17.4939ZM74.0551 16.9925C73.5606 17.3225 72.9788 17.4971 72.3845 17.4939C71.5948 17.489 70.8391 17.1712 70.2828 16.6102C69.7245 16.0473 69.4093 15.2875 69.4051 14.4943C69.4016 13.8968 69.5749 13.3115 69.9031 12.8124C70.2302 12.3145 70.698 11.9252 71.2468 11.6943C71.7946 11.464 72.3986 11.4028 72.9813 11.5186C73.5647 11.6349 74.1002 11.9226 74.5194 12.345C74.9398 12.7686 75.2254 13.3074 75.34 13.8934C75.4551 14.48 75.3944 15.0875 75.1657 15.6397C74.9374 16.1907 74.5509 16.6616 74.0551 16.9925ZM105.291 7.80199C105.291 10.5638 103.839 12.5362 101.299 12.9637H105.755V17.4939H97.5398C93.2176 17.4939 90.7758 15.3274 90.7758 11.0528V8.48908C90.7758 4.37941 93.05 2.11134 97.1421 2.11134H99.1539C102.948 2.11134 105.291 4.41259 105.291 7.56864V7.80199ZM95.4928 8.09858C95.4928 9.54495 96.5486 10.597 98.0668 10.597L98.0657 10.5941C99.6162 10.5941 100.672 9.54495 100.673 8.09868C100.673 6.61914 99.6172 5.56709 98.0668 5.56709C96.5486 5.56709 95.4928 6.61904 95.4928 8.09858ZM108.605 17.4939H119.936V12.3664H114.667C114.325 12.373 113.986 12.3116 113.668 12.1858C113.351 12.0602 113.062 11.8724 112.818 11.6335C112.574 11.3949 112.38 11.11 112.248 10.7955C112.116 10.4812 112.048 10.1436 112.048 9.80263C112.048 9.4617 112.115 9.12419 112.248 8.8098C112.38 8.49523 112.574 8.21033 112.818 7.9718C113.062 7.73288 113.351 7.54508 113.668 7.41944C113.986 7.29347 114.325 7.23209 114.667 7.23887H119.936V2.11134H108.605C107.814 2.11134 107.353 2.5709 107.353 3.36034V16.2479C107.353 17.0334 107.812 17.4939 108.605 17.4939ZM126.724 17.4939H121.533L121.545 0H126.735V2.04981H130.836C134.998 2.04981 137.412 4.7865 137.412 8.61465V17.4939H132.221V10.0012C132.221 8.35114 130.996 7.19594 129.473 7.19594C127.948 7.19594 126.724 8.35114 126.724 10.0012V17.4939Z" fill="white" fill-opacity="0.32"/>
</g>
<defs>
<clipPath id="clip0_11_299">
<rect width="137.412" height="17.4778" fill="white"/>
</clipPath>
</defs>
</svg>
