<svg width="143" height="16" viewBox="0 0 143 16" fill="none" xmlns="http://www.w3.org/2000/svg">
<g clip-path="url(#clip0_11_288)">
<path d="M5.62607 8.17191H3.3871V3.46996H5.62607C7.20485 3.46996 8.4535 4.35157 8.4535 5.89439C8.46783 7.45189 7.21918 8.17191 5.62607 8.17191ZM5.52561 0.545959H-6.10352e-05V15.2541H3.3871V11.0812H5.52561C9.25721 11.0812 12.0416 9.75879 12.0416 5.87969C12.0416 2.03 9.25721 0.545959 5.52561 0.545959Z" fill="white" fill-opacity="0.32"/>
<path d="M20.0117 7.54008H17.7728V3.46996H20.0117C21.6192 3.46996 22.8392 3.98423 22.8392 5.49766C22.8535 7.11391 21.6192 7.54008 20.0117 7.54008ZM26.4416 5.45358C26.4416 1.86837 23.6429 0.545959 19.9256 0.545959H14.3856V15.2541H17.7728V10.4493H19.8969L23.1836 15.2541H27.1735L23.4419 9.89098C25.0781 9.2445 26.4416 7.93679 26.4416 5.45358Z" fill="white" fill-opacity="0.32"/>
<path d="M50.9636 9.90395H54.4369C54.4369 11.7701 52.8151 12.6664 51.2507 12.6664C48.9974 12.6664 47.4904 10.9619 47.4904 7.86156C47.4904 4.76127 49.1122 3.17437 51.1933 3.17437C53.0304 3.17437 54.0494 4.14414 54.3508 5.15799H57.6805C57.006 1.95481 54.4369 0.309143 51.2363 0.309143C46.8732 0.309143 43.9023 3.20376 43.9023 7.86156C43.9023 12.5635 46.5001 15.5316 50.734 15.5316C52.8008 15.5316 54.4943 14.2386 55.1402 12.5341V15.2671H57.8384V7.05342H50.978V9.90395H50.9636Z" fill="white" fill-opacity="0.32"/>
<path d="M69.2074 11.0959L66.4519 0.545959H61.1127V15.2541H64.3994V3.11732L67.6285 15.2541H70.8147L74.0299 3.10262V15.2541H77.3166V0.545959H72.0203L69.2074 11.0959Z" fill="white" fill-opacity="0.32"/>
<path d="M94.5028 3.58751H98.378V15.2541H101.794V3.58751H105.511V0.545959H94.5028V3.58751Z" fill="white" fill-opacity="0.32"/>
<path d="M111.086 0.545959H107.698V15.2541H111.086V0.545959Z" fill="white" fill-opacity="0.32"/>
<path d="M89.2473 9.65504C89.2473 11.7562 88.2716 13.0345 86.0037 13.0345C84.3673 13.0345 83.5494 12.1677 83.5494 11.1244C83.5494 9.7285 84.4102 8.77343 86.5632 8.77343H89.2328V9.65504H89.2473ZM92.7639 6.71638C92.7639 1.80875 90.0368 0.324707 86.6636 0.324707C83.0328 0.324707 80.5211 2.77852 80.2628 5.64374H83.6644C83.7357 4.05685 85.0854 2.94015 86.4773 2.94015C87.9558 2.94015 89.1324 3.7189 89.1324 5.967V6.39311C88.917 6.39311 86.5923 6.39311 86.3769 6.39311C82.1859 6.39311 79.9755 7.98002 79.9755 11.3007C79.9755 13.9455 81.9422 15.5618 85.0854 15.5618C87.2238 15.5618 88.5299 14.4745 89.534 12.9758V15.2239H92.7493V6.71638H92.7639Z" fill="white" fill-opacity="0.32"/>
<path d="M38.0216 9.66927C38.0216 11.7705 37.0457 13.0488 34.7779 13.0488C33.1418 13.0488 32.3237 12.1819 32.3237 11.1386C32.3237 9.74273 33.1848 8.78767 35.3377 8.78767H38.0073V9.66927H38.0216ZM41.5379 6.73061C41.5379 1.82297 38.811 0.338928 35.4382 0.338928C31.807 0.338928 29.2953 2.79274 29.037 5.65796H32.4385C32.5246 4.07107 33.8594 2.95437 35.2516 2.95437C36.7299 2.95437 37.9068 3.73312 37.9068 5.98122V6.40733C37.6915 6.40733 35.3664 6.40733 35.1511 6.40733C30.9603 6.40733 28.7499 7.99426 28.7499 11.315C28.7499 13.9598 30.7162 15.5761 33.8594 15.5761C35.9979 15.5761 37.304 14.4887 38.3087 12.99V15.2381H41.5236V6.73061H41.5379Z" fill="white" fill-opacity="0.32"/>
<path d="M138.518 9.66927C138.518 11.7705 137.542 13.0488 135.274 13.0488C133.638 13.0488 132.82 12.1819 132.82 11.1386C132.82 9.74273 133.681 8.78767 135.834 8.78767H138.504V9.66927H138.518ZM142.034 6.73061C142.034 1.82297 139.307 0.338928 135.935 0.338928C132.303 0.338928 129.791 2.79274 129.533 5.65796H132.935C133.007 4.07107 134.356 2.95437 135.748 2.95437C137.226 2.95437 138.403 3.73312 138.403 5.98122V6.40733C138.188 6.40733 135.863 6.40733 135.647 6.40733C131.456 6.40733 129.246 7.99426 129.246 11.315C129.246 13.9598 131.212 15.5761 134.356 15.5761C136.494 15.5761 137.8 14.4887 138.805 12.99V15.2381H142.02V6.73061H142.034Z" fill="white" fill-opacity="0.32"/>
<path d="M120.809 12.6373C118.743 12.6373 117.179 10.9769 117.179 7.87654C117.179 4.87908 118.743 3.14525 120.766 3.14525C122.273 3.14525 123.651 3.92401 124.111 5.68723H127.469C126.852 2.51344 124.369 0.280029 120.881 0.280029C116.404 0.280029 113.591 3.21872 113.591 7.86187C113.591 12.5637 116.303 15.4878 120.781 15.4878C124.412 15.4878 127.096 13.1515 127.613 9.74261H124.283C123.895 11.9907 122.273 12.6373 120.809 12.6373Z" fill="white" fill-opacity="0.32"/>
</g>
<defs>
<clipPath id="clip0_11_288">
<rect width="142.034" height="15.855" fill="white"/>
</clipPath>
</defs>
</svg>
